<svg width="33" height="27" viewBox="0 0 33 27" fill="none" xmlns="http://www.w3.org/2000/svg">
<path d="M32.2874 5.69403H14.2851M14.2851 5.69403C14.2851 4.62872 13.8388 3.60704 13.0444 2.85376C12.25 2.10047 11.1726 1.67728 10.0492 1.67728C8.9258 1.67728 7.8484 2.10047 7.05402 2.85376C6.25965 3.60704 5.81337 4.62872 5.81337 5.69403M14.2851 5.69403C14.2851 6.75934 13.8388 7.78102 13.0444 8.53431C12.25 9.2876 11.1726 9.71079 10.0492 9.71079C8.9258 9.71079 7.8484 9.2876 7.05402 8.53431C6.25965 7.78102 5.81337 6.75934 5.81337 5.69403M5.81337 5.69403H0.518555M32.2874 21.7611H26.9926M26.9926 21.7611C26.9926 20.6957 26.5464 19.6741 25.752 18.9208C24.9576 18.1675 23.8802 17.7443 22.7568 17.7443C21.6334 17.7443 20.556 18.1675 19.7616 18.9208C18.9672 19.6741 18.5209 20.6957 18.5209 21.7611M26.9926 21.7611C26.9926 22.8264 26.5464 23.848 25.752 24.6013C24.9576 25.3546 23.8802 25.7778 22.7568 25.7778C21.6334 25.7778 20.556 25.3546 19.7616 24.6013C18.9672 23.848 18.5209 22.8264 18.5209 21.7611M18.5209 21.7611H0.518555" stroke="white" stroke-width="2.37222"/>
</svg>
