<svg width="18" height="18" viewBox="0 0 18 18" fill="none" xmlns="http://www.w3.org/2000/svg">
<path d="M1.35159 16.9616H10.8405M2.14233 6.68195H10.0497M10.0497 16.9616V2.72824C10.0497 2.30881 9.88312 1.90655 9.58654 1.60996C9.28995 1.31338 8.8877 1.14676 8.46826 1.14676H3.72382C3.30438 1.14676 2.90212 1.31338 2.60554 1.60996C2.30895 1.90655 2.14233 2.30881 2.14233 2.72824V16.9616M10.0497 9.84491H11.6312C12.0507 9.84491 12.4529 10.0115 12.7495 10.3081C13.0461 10.6047 13.2127 11.007 13.2127 11.4264V13.0079C13.2127 13.4273 13.3793 13.8296 13.6759 14.1261C13.9725 14.4227 14.3748 14.5894 14.7942 14.5894C15.2136 14.5894 15.6159 14.4227 15.9125 14.1261C16.2091 13.8296 16.3757 13.4273 16.3757 13.0079V7.33826C16.3758 7.12957 16.3347 6.92292 16.2546 6.73021C16.1746 6.53749 16.0571 6.36253 15.9091 6.21541L13.2127 3.51898" stroke="#0F81EC" stroke-width="1.58148" stroke-linecap="round" stroke-linejoin="round"/>
</svg>
