<svg width="175" height="72" viewBox="0 0 175 72" fill="none" xmlns="http://www.w3.org/2000/svg">
<path d="M15.7903 26.0828C17.4897 26.4138 18.7807 27.0979 19.6634 28.1352C20.5683 29.1503 21.0207 30.3972 21.0207 31.8759C21.0207 33.8621 20.2372 35.3848 18.6703 36.4441C17.1034 37.4814 14.8083 38 11.7848 38H3.14483V15.4897H11.7848C14.5214 15.4897 16.5738 15.9421 17.9421 16.8469C19.3324 17.7517 20.0276 19.1531 20.0276 21.051C20.0276 22.2648 19.6634 23.3241 18.9352 24.229C18.2069 25.1117 17.1586 25.7297 15.7903 26.0828ZM8.37517 19.1641V24.2621H11.7848C13.7931 24.2621 14.7972 23.4014 14.7972 21.68C14.7972 20.7752 14.5434 20.1352 14.0359 19.76C13.5283 19.3628 12.7779 19.1641 11.7848 19.1641H8.37517ZM11.7848 34.3255C13.0648 34.3255 14.0469 34.0607 14.731 33.531C15.4372 33.0014 15.7903 32.2069 15.7903 31.1476C15.7903 29.0069 14.4552 27.9366 11.7848 27.9366H8.37517V34.3255H11.7848ZM25.1837 11.5172H30.2485V38H25.1837V11.5172ZM52.3389 19.4621V38H48.5651L48.0023 36.411C45.9058 37.7572 43.8313 38.4303 41.7789 38.4303C39.4396 38.4303 37.8285 37.8234 36.9458 36.6097C36.063 35.3738 35.6216 33.5972 35.6216 31.28V19.4621H40.6865V30.651C40.6865 32.1738 40.8741 33.2331 41.2492 33.829C41.6465 34.4248 42.3637 34.7228 43.4009 34.7228C44.6368 34.7228 45.9278 34.2483 47.2741 33.2993V19.4621H52.3389ZM69.1552 23.8979C68.0297 23.8979 66.9924 23.9862 66.0434 24.1628C65.1165 24.3393 64.0793 24.6924 62.9317 25.2221V38H57.8669V19.4621H61.6407L62.4352 21.7131C63.5828 20.7421 64.6862 20.0579 65.7455 19.6607C66.8269 19.2634 67.9634 19.0648 69.1552 19.0648V23.8979Z" fill="url(#paint0_linear_1_579)"/>
<path d="M89.1199 19.2303H82.5985V38H77.3682V19.2303H70.913V15.4897H89.1199V19.2303ZM100.795 38.4303C98.7203 38.4303 96.9659 38.011 95.5314 37.1724C94.0969 36.3338 93.0266 35.1862 92.3203 33.7297C91.6141 32.2731 91.261 30.6179 91.261 28.7641C91.261 26.8662 91.6141 25.189 92.3203 23.7324C93.0266 22.2538 94.0969 21.1062 95.5314 20.2897C96.9659 19.451 98.7203 19.0317 100.795 19.0317C102.869 19.0317 104.624 19.4731 106.058 20.3559C107.493 21.2386 108.563 22.4193 109.269 23.8979C109.998 25.3545 110.362 26.9545 110.362 28.6979C110.362 30.4414 109.998 32.0524 109.269 33.531C108.563 35.0097 107.493 36.2014 106.058 37.1062C104.624 37.989 102.869 38.4303 100.795 38.4303ZM100.828 34.789C103.763 34.789 105.231 32.7697 105.231 28.731C105.231 24.7145 103.763 22.7062 100.828 22.7062C97.8707 22.7062 96.3921 24.7145 96.3921 28.731C96.3921 32.7697 97.8707 34.789 100.828 34.789ZM126.389 38L119.57 28.3669V38H114.505V11.5172H119.57V27.44L125.528 19.4621H130.726L124.237 27.9034L131.95 38H126.389ZM143.209 34.789C144.268 34.789 145.239 34.5903 146.122 34.1931C147.004 33.7959 147.953 33.211 148.969 32.4386L150.425 35.6497C149.322 36.5986 148.196 37.3048 147.049 37.7683C145.923 38.2097 144.643 38.4303 143.209 38.4303C141.09 38.4303 139.313 38.011 137.879 37.1724C136.467 36.3117 135.407 35.1641 134.701 33.7297C134.017 32.2731 133.675 30.6179 133.675 28.7641C133.675 26.8662 134.028 25.189 134.734 23.7324C135.44 22.2538 136.5 21.1062 137.912 20.2897C139.347 19.451 141.112 19.0317 143.209 19.0317C145.614 19.0317 147.468 19.6938 148.77 21.0179C150.094 22.3421 150.767 24.2069 150.789 26.6124C150.789 27.4952 150.657 28.389 150.392 29.2938H138.673C138.74 31.1034 139.137 32.4717 139.865 33.3986C140.593 34.3255 141.708 34.789 143.209 34.789ZM142.911 22.4414C140.814 22.4414 139.49 23.6221 138.938 25.9834H145.857C145.879 25.8731 145.89 25.7186 145.89 25.52C145.868 24.5269 145.581 23.7655 145.029 23.2359C144.5 22.7062 143.793 22.4414 142.911 22.4414ZM165.474 19.0317C167.813 19.0317 169.424 19.6497 170.307 20.8855C171.189 22.0993 171.631 23.8759 171.631 26.2152V38H166.566V26.811C166.566 25.3103 166.367 24.2621 165.97 23.6662C165.595 23.0703 164.889 22.7724 163.851 22.7724C162.616 22.7724 161.336 23.2359 160.011 24.1628V38H154.947V19.4621H158.72L159.283 21.0841C161.424 19.7159 163.487 19.0317 165.474 19.0317Z" fill="white"/>
<path d="M25.317 60.0649H23.8182V63.7414H22.3579V55.0306H25.4195C26.4699 55.0306 27.2599 55.2441 27.7893 55.6711C28.3188 56.0981 28.5836 56.7001 28.5836 57.4773C28.5836 58.1007 28.4341 58.6131 28.1352 59.0145C27.8363 59.4073 27.388 59.6806 26.7901 59.8343L29.5187 63.7414H27.8278L25.317 60.0649ZM23.8182 59.0017H25.4195C26.5553 59.0017 27.1232 58.5149 27.1232 57.5413C27.1232 57.0716 26.978 56.7129 26.6877 56.4653C26.4058 56.2176 25.9831 56.0938 25.4195 56.0938H23.8182V59.0017ZM33.9162 62.8959C34.3347 62.8959 34.7147 62.8105 35.0563 62.6397C35.4065 62.4604 35.7524 62.2085 36.094 61.8839L36.5679 62.7806C36.2007 63.1564 35.8036 63.4468 35.3766 63.6517C34.9496 63.8481 34.4628 63.9464 33.9162 63.9464C33.1647 63.9464 32.5328 63.7841 32.0204 63.4596C31.508 63.1351 31.1237 62.6952 30.8675 62.1401C30.6198 61.585 30.496 60.9659 30.496 60.2827C30.496 59.5739 30.6198 58.9419 30.8675 58.3868C31.1237 57.8317 31.508 57.3919 32.0204 57.0674C32.5328 56.7428 33.1647 56.5806 33.9162 56.5806C34.7361 56.5806 35.3894 56.8154 35.8762 57.2851C36.3715 57.7548 36.6192 58.4081 36.6192 59.2451C36.6192 59.5013 36.585 59.7874 36.5167 60.1033H31.9051V60.2571C31.9051 61.0769 32.0716 61.7217 32.4047 62.1914C32.7463 62.6611 33.2501 62.8959 33.9162 62.8959ZM33.8522 57.5798C33.374 57.5798 32.9811 57.7164 32.6737 57.9897C32.3748 58.263 32.1613 58.643 32.0332 59.1298H35.2357V59.0017C35.2357 58.5405 35.099 58.1904 34.8258 57.9512C34.561 57.7036 34.2365 57.5798 33.8522 57.5798ZM47.678 56.7855L45.4874 63.8311H44.168L42.5667 58.3868L40.9527 63.8311H39.6332L37.4299 56.7855H38.8774L40.2994 62.217L41.9134 56.7855H43.2201L44.8469 62.2426L46.256 56.7855H47.678ZM55.006 63.7158C54.7754 63.7756 54.5833 63.8183 54.4296 63.8439C54.2758 63.8695 54.1008 63.8823 53.9044 63.8823C53.5627 63.8823 53.2767 63.8183 53.0461 63.6902C52.824 63.5535 52.6746 63.3229 52.5977 62.9984C52.2134 63.2888 51.8377 63.5108 51.4704 63.6645C51.1032 63.8183 50.7275 63.8951 50.3432 63.8951C49.7966 63.8951 49.3482 63.7371 48.9981 63.4211C48.648 63.0966 48.4729 62.6952 48.4729 62.217C48.4729 61.7558 48.5967 61.3801 48.8444 61.0897C49.092 60.7908 49.4336 60.5474 49.8692 60.3595C50.3133 60.1717 50.9324 59.9624 51.7266 59.7318L52.5465 59.5013V59.117C52.5465 58.6729 52.4525 58.3227 52.2647 58.0665C52.0853 57.8018 51.795 57.6694 51.3936 57.6694C50.9922 57.6694 50.6036 57.7548 50.2279 57.9256C49.8606 58.0964 49.4422 58.4039 48.9725 58.8479L48.5113 57.9256C49.519 57.0289 50.5994 56.5806 51.7523 56.5806C52.5038 56.5806 53.0589 56.7813 53.4176 57.1826C53.7763 57.584 53.9556 58.2544 53.9556 59.1938V62.3067C53.9556 62.4945 53.9898 62.6312 54.0581 62.7166C54.1264 62.7934 54.2374 62.8319 54.3911 62.8319C54.5363 62.8319 54.7157 62.7934 54.9292 62.7166L55.006 63.7158ZM49.882 62.0761C49.882 62.3408 49.9546 62.5372 50.0998 62.6653C50.2535 62.7849 50.4627 62.8447 50.7275 62.8447C51.0007 62.8447 51.2826 62.7806 51.5729 62.6525C51.8633 62.5159 52.1878 62.3152 52.5465 62.0505V60.3852L51.9444 60.5645C51.1758 60.8036 50.6378 61.0342 50.3303 61.2562C50.0314 61.4697 49.882 61.743 49.882 62.0761ZM60.1725 57.9256C59.754 57.9256 59.3612 57.9811 58.994 58.0922C58.6267 58.2032 58.2168 58.4167 57.7642 58.7327V63.7414H56.3551V56.7855H57.4311L57.6745 57.6822C58.1015 57.2809 58.5114 56.999 58.9043 56.8368C59.3057 56.6745 59.7284 56.5934 60.1725 56.5934V57.9256ZM67.4095 53.4933V63.7414H66.3334L66.1797 63.1778C65.5648 63.6902 64.8816 63.9464 64.1301 63.9464C63.5408 63.9464 63.0199 63.8097 62.5673 63.5364C62.1146 63.2546 61.7602 62.8447 61.504 62.3067C61.2564 61.7686 61.1325 61.1196 61.1325 60.3595C61.1325 59.0871 61.4656 58.1391 62.1317 57.5157C62.8064 56.8923 63.6945 56.5806 64.7962 56.5806C65.2232 56.5806 65.6246 56.6403 66.0004 56.7599V53.4933H67.4095ZM62.5673 60.3595C62.5673 61.2477 62.7252 61.8925 63.0412 62.2939C63.3658 62.6867 63.7671 62.8831 64.2454 62.8831C64.587 62.8831 64.8901 62.8361 65.1549 62.7422C65.4282 62.6397 65.71 62.4817 66.0004 62.2682V57.8231C65.6844 57.7036 65.3086 57.6438 64.8731 57.6438C64.0959 57.6438 63.5152 57.8829 63.1309 58.3612C62.7551 58.8394 62.5673 59.5055 62.5673 60.3595ZM78.8998 63.7158C78.6692 63.7756 78.4771 63.8183 78.3233 63.8439C78.1696 63.8695 77.9945 63.8823 77.7981 63.8823C77.4565 63.8823 77.1704 63.8183 76.9398 63.6902C76.7178 63.5535 76.5684 63.3229 76.4915 62.9984C76.1072 63.2888 75.7314 63.5108 75.3642 63.6645C74.997 63.8183 74.6212 63.8951 74.2369 63.8951C73.6904 63.8951 73.242 63.7371 72.8919 63.4211C72.5417 63.0966 72.3667 62.6952 72.3667 62.217C72.3667 61.7558 72.4905 61.3801 72.7381 61.0897C72.9858 60.7908 73.3274 60.5474 73.763 60.3595C74.207 60.1717 74.8262 59.9624 75.6204 59.7318L76.4403 59.5013V59.117C76.4403 58.6729 76.3463 58.3227 76.1584 58.0665C75.9791 57.8018 75.6887 57.6694 75.2874 57.6694C74.886 57.6694 74.4974 57.7548 74.1216 57.9256C73.7544 58.0964 73.336 58.4039 72.8662 58.8479L72.4051 57.9256C73.4128 57.0289 74.4931 56.5806 75.646 56.5806C76.3976 56.5806 76.9527 56.7813 77.3113 57.1826C77.67 57.584 77.8494 58.2544 77.8494 59.1938V62.3067C77.8494 62.4945 77.8835 62.6312 77.9518 62.7166C78.0202 62.7934 78.1312 62.8319 78.2849 62.8319C78.4301 62.8319 78.6094 62.7934 78.8229 62.7166L78.8998 63.7158ZM73.7758 62.0761C73.7758 62.3408 73.8484 62.5372 73.9935 62.6653C74.1473 62.7849 74.3565 62.8447 74.6212 62.8447C74.8945 62.8447 75.1763 62.7806 75.4667 62.6525C75.7571 62.5159 76.0816 62.3152 76.4403 62.0505V60.3852L75.8382 60.5645C75.0696 60.8036 74.5316 61.0342 74.2241 61.2562C73.9252 61.4697 73.7758 61.743 73.7758 62.0761ZM83.8997 56.5806C84.711 56.5806 85.2661 56.7941 85.565 57.2211C85.8725 57.6395 86.0262 58.2459 86.0262 59.0401V63.7414H84.6043V59.1938C84.6043 58.6387 84.5231 58.2459 84.3609 58.0153C84.2072 57.7847 83.9211 57.6694 83.5026 57.6694C82.939 57.6694 82.3241 57.9214 81.658 58.4252V63.7414H80.2488V56.7855H81.3249L81.5042 57.4645C82.3412 56.8752 83.1397 56.5806 83.8997 56.5806ZM93.9803 53.4933V63.7414H92.9043L92.7506 63.1778C92.1357 63.6902 91.4525 63.9464 90.701 63.9464C90.1117 63.9464 89.5908 63.8097 89.1381 63.5364C88.6855 63.2546 88.3311 62.8447 88.0749 62.3067C87.8272 61.7686 87.7034 61.1196 87.7034 60.3595C87.7034 59.0871 88.0365 58.1391 88.7026 57.5157C89.3773 56.8923 90.2654 56.5806 91.3671 56.5806C91.7941 56.5806 92.1955 56.6403 92.5712 56.7599V53.4933H93.9803ZM89.1381 60.3595C89.1381 61.2477 89.2961 61.8925 89.6121 62.2939C89.9366 62.6867 90.338 62.8831 90.8163 62.8831C91.1579 62.8831 91.461 62.8361 91.7258 62.7422C91.999 62.6397 92.2809 62.4817 92.5712 62.2682V57.8231C92.2552 57.7036 91.8795 57.6438 91.4439 57.6438C90.6668 57.6438 90.0861 57.8829 89.7018 58.3612C89.326 58.8394 89.1381 59.5055 89.1381 60.3595ZM101.986 63.9335C100.799 63.9335 99.8001 63.6773 98.9888 63.1649L99.3987 62.1273C100.176 62.597 101.038 62.8319 101.986 62.8319C102.541 62.8319 102.998 62.708 103.357 62.4604C103.724 62.2127 103.908 61.8669 103.908 61.4228C103.908 61.1495 103.818 60.9189 103.639 60.731C103.468 60.5431 103.25 60.3894 102.986 60.2699C102.729 60.1418 102.379 59.9966 101.935 59.8343C101.38 59.6379 100.927 59.4543 100.577 59.2835C100.227 59.1042 99.9282 58.8565 99.6805 58.5405C99.4329 58.2245 99.309 57.8274 99.309 57.3492C99.309 56.5549 99.5951 55.9443 100.167 55.5173C100.739 55.0818 101.487 54.864 102.409 54.864C103.408 54.864 104.292 55.116 105.061 55.6198L104.638 56.6446C103.921 56.192 103.19 55.9657 102.447 55.9657C101.944 55.9657 101.534 56.0767 101.218 56.2987C100.902 56.5208 100.744 56.8453 100.744 57.2723C100.744 57.5285 100.825 57.7463 100.987 57.9256C101.158 58.105 101.371 58.2544 101.628 58.374C101.884 58.4935 102.234 58.6344 102.678 58.7967C103.25 59.0102 103.711 59.2066 104.062 59.386C104.412 59.5653 104.711 59.8172 104.958 60.1418C105.214 60.4577 105.343 60.8591 105.343 61.3459C105.343 62.1487 105.039 62.7806 104.433 63.2418C103.835 63.703 103.02 63.9335 101.986 63.9335ZM111.27 63.434C110.791 63.7329 110.266 63.8823 109.694 63.8823C108.925 63.8823 108.353 63.6859 107.977 63.293C107.602 62.8917 107.414 62.3195 107.414 61.5765V57.836H106.325V57.2339L107.555 56.8368L107.977 55.1074H108.823V56.7855H110.872V57.836H108.823V61.3075C108.823 61.8455 108.908 62.2341 109.079 62.4732C109.25 62.7038 109.527 62.8191 109.912 62.8191C110.108 62.8105 110.292 62.7806 110.462 62.7294C110.633 62.6782 110.821 62.597 111.026 62.486L111.27 63.434ZM118.781 63.7158C118.551 63.7756 118.358 63.8183 118.205 63.8439C118.051 63.8695 117.876 63.8823 117.679 63.8823C117.338 63.8823 117.052 63.8183 116.821 63.6902C116.599 63.5535 116.45 63.3229 116.373 62.9984C115.989 63.2888 115.613 63.5108 115.246 63.6645C114.878 63.8183 114.503 63.8951 114.118 63.8951C113.572 63.8951 113.123 63.7371 112.773 63.4211C112.423 63.0966 112.248 62.6952 112.248 62.217C112.248 61.7558 112.372 61.3801 112.619 61.0897C112.867 60.7908 113.209 60.5474 113.644 60.3595C114.088 60.1717 114.708 59.9624 115.502 59.7318L116.322 59.5013V59.117C116.322 58.6729 116.228 58.3227 116.04 58.0665C115.86 57.8018 115.57 57.6694 115.169 57.6694C114.767 57.6694 114.379 57.7548 114.003 57.9256C113.636 58.0964 113.217 58.4039 112.748 58.8479L112.286 57.9256C113.294 57.0289 114.374 56.5806 115.527 56.5806C116.279 56.5806 116.834 56.7813 117.193 57.1826C117.551 57.584 117.731 58.2544 117.731 59.1938V62.3067C117.731 62.4945 117.765 62.6312 117.833 62.7166C117.901 62.7934 118.013 62.8319 118.166 62.8319C118.311 62.8319 118.491 62.7934 118.704 62.7166L118.781 63.7158ZM113.657 62.0761C113.657 62.3408 113.73 62.5372 113.875 62.6653C114.029 62.7849 114.238 62.8447 114.503 62.8447C114.776 62.8447 115.058 62.7806 115.348 62.6525C115.638 62.5159 115.963 62.3152 116.322 62.0505V60.3852L115.72 60.5645C114.951 60.8036 114.413 61.0342 114.105 61.2562C113.807 61.4697 113.657 61.743 113.657 62.0761ZM122.961 63.9464C122.21 63.9464 121.578 63.7841 121.065 63.4596C120.553 63.1351 120.169 62.6952 119.912 62.1401C119.665 61.585 119.541 60.9659 119.541 60.2827C119.541 59.608 119.669 58.9931 119.925 58.438C120.181 57.8744 120.579 57.426 121.117 57.093C121.655 56.7514 122.325 56.5806 123.128 56.5806C123.521 56.5806 123.909 56.6446 124.293 56.7727C124.678 56.9008 124.994 57.0716 125.241 57.2851L124.819 58.2843C124.597 58.0879 124.336 57.9342 124.037 57.8231C123.738 57.7036 123.435 57.6438 123.128 57.6438C122.445 57.6438 121.915 57.8829 121.539 58.3612C121.164 58.8309 120.976 59.4671 120.976 60.2699C120.976 61.0726 121.151 61.7131 121.501 62.1914C121.851 62.6611 122.338 62.8959 122.961 62.8959C123.363 62.8959 123.721 62.8191 124.037 62.6653C124.353 62.5031 124.665 62.281 124.972 61.9992L125.446 62.8959C125.147 63.2034 124.785 63.4553 124.357 63.6517C123.93 63.8481 123.465 63.9464 122.961 63.9464ZM126.923 53.4933H128.332V63.7414H126.923V53.4933ZM132.969 63.7414H131.381L128.486 60.0777V59.8215L130.997 56.7855H132.495L129.844 59.9368L132.969 63.7414ZM135.135 54.9665C134.896 54.9665 134.691 54.8811 134.52 54.7103C134.349 54.5395 134.264 54.3388 134.264 54.1082C134.264 53.8691 134.349 53.6641 134.52 53.4933C134.691 53.314 134.896 53.2243 135.135 53.2243C135.374 53.2243 135.579 53.314 135.75 53.4933C135.92 53.6641 136.006 53.8691 136.006 54.1082C136.006 54.3388 135.92 54.5395 135.75 54.7103C135.579 54.8811 135.374 54.9665 135.135 54.9665ZM134.43 56.7855H135.839V63.7414H134.43V56.7855ZM141.883 56.5806C142.694 56.5806 143.249 56.7941 143.548 57.2211C143.856 57.6395 144.009 58.2459 144.009 59.0401V63.7414H142.587V59.1938C142.587 58.6387 142.506 58.2459 142.344 58.0153C142.19 57.7847 141.904 57.6694 141.486 57.6694C140.922 57.6694 140.307 57.9214 139.641 58.4252V63.7414H138.232V56.7855H139.308L139.487 57.4645C140.324 56.8752 141.123 56.5806 141.883 56.5806ZM152.399 57.836L150.964 57.6822C151.178 58.0324 151.284 58.4295 151.284 58.8736C151.284 59.292 151.186 59.6763 150.99 60.0265C150.793 60.3766 150.495 60.6584 150.093 60.8719C149.7 61.0854 149.213 61.1922 148.633 61.1922C148.342 61.1922 148.082 61.1666 147.851 61.1153C147.646 61.2861 147.497 61.4399 147.403 61.5765C147.309 61.7046 147.262 61.837 147.262 61.9736C147.262 62.1529 147.322 62.281 147.441 62.3579C147.57 62.4348 147.779 62.4732 148.069 62.4732H150.183C150.849 62.4732 151.366 62.6269 151.733 62.9344C152.1 63.2418 152.284 63.6517 152.284 64.1641C152.284 64.668 152.109 65.1292 151.758 65.5476C151.417 65.9661 150.947 66.2949 150.349 66.534C149.752 66.7731 149.081 66.8927 148.338 66.8927C147.347 66.8927 146.63 66.7176 146.186 66.3675C145.751 66.0173 145.533 65.586 145.533 65.0736C145.533 64.732 145.622 64.4289 145.802 64.1641C145.981 63.8994 146.254 63.6304 146.622 63.3571C146.126 63.1351 145.879 62.7764 145.879 62.281C145.879 62.0248 145.964 61.7815 146.135 61.5509C146.306 61.3118 146.579 61.047 146.955 60.7566C146.639 60.5431 146.395 60.2741 146.224 59.9496C146.062 59.6251 145.981 59.275 145.981 58.8992C145.981 58.4807 146.079 58.0964 146.276 57.7463C146.472 57.3961 146.771 57.1143 147.172 56.9008C147.574 56.6873 148.061 56.5806 148.633 56.5806C149.077 56.5806 149.478 56.6489 149.837 56.7855H152.399V57.836ZM148.633 60.193C149.026 60.193 149.337 60.0734 149.568 59.8343C149.798 59.5952 149.914 59.2792 149.914 58.8864C149.914 58.4935 149.798 58.1776 149.568 57.9384C149.346 57.6993 149.034 57.5798 148.633 57.5798C148.248 57.5798 147.941 57.6993 147.71 57.9384C147.48 58.1776 147.365 58.4935 147.365 58.8864C147.365 59.2792 147.48 59.5952 147.71 59.8343C147.941 60.0734 148.248 60.193 148.633 60.193ZM150.939 64.3691C150.939 63.8311 150.597 63.5621 149.914 63.5621H147.89H147.723C147.16 64.0318 146.878 64.5015 146.878 64.9712C146.878 65.2786 147.002 65.5006 147.249 65.6373C147.505 65.7739 147.868 65.8422 148.338 65.8422C148.825 65.8422 149.265 65.7697 149.658 65.6245C150.059 65.4793 150.371 65.2914 150.593 65.0608C150.823 64.8302 150.939 64.5997 150.939 64.3691Z" fill="white" fill-opacity="0.7"/>
<defs>
<linearGradient id="paint0_linear_1_579" x1="87.5" y1="0" x2="87.5" y2="60" gradientUnits="userSpaceOnUse">
<stop stop-color="#D91A97"/>
<stop offset="1" stop-color="#B10F79"/>
</linearGradient>
</defs>
</svg>
